<?xml version="1.0" encoding="utf-8"?>
<svg width="1200pt" height="1200pt" version="1.1" viewBox="0 0 1200 1200" xmlns="http://www.w3.org/2000/svg">
  <path d="M 737.01 736.911 C 737.01 678.236 764.861 631.584 810.593 611.455 C 856.348 591.328 907.915 602.151 947.752 638.471 C 960.533 650.102 971.7 655.694 983.37 650.253 C 995.344 644.66 997.302 624.163 997.302 611.423 L 997.302 392.795 C 997.302 363.576 975.601 342.696 946.365 342.696 L 731.973 342.696 C 660.472 342.696 644.538 282.455 681.12 241.018 C 741.347 172.79 709.081 67.292 599.496 62.714 C 489.923 67.276 457.668 172.603 517.886 240.835 C 554.463 282.291 538.543 342.692 467.042 342.692 L 255.813 342.692 C 226.593 342.692 202.699 363.572 202.699 392.792 L 202.699 1083.335 C 202.699 1112.559 226.594 1137.287 255.813 1137.287 L 946.355 1137.287 C 975.592 1137.287 997.293 1112.559 997.293 1083.335 L 997.293 866.134 C 997.293 853.393 994.377 831.952 982.17 826.265 C 970.045 820.619 955.743 826.511 942.823 838.293 C 903.146 874.487 854.555 884.556 809.295 864.635 C 763.798 844.598 737.001 797.483 737.001 738.631 L 737.01 736.911 Z" style="fill: rgb(242, 186, 228);"/>
</svg>
