<?xml version="1.0" encoding="utf-8"?>
<svg viewBox="156.802 134.795 172.159 246.356" xmlns="http://www.w3.org/2000/svg">
  <g transform="matrix(1, 0, 0, 1, 0.283996, 0)">
    <path id="Path" stroke="black" stroke-width="1"
      d="M 190.944 324.634 C 191.88 324.634 192.694 324.562 193.39 324.417 C 194.082 324.272 194.686 324.089 195.193 323.863 C 195.7 323.64 196.129 323.402 196.483 323.144 C 196.839 322.883 197.158 322.643 197.439 322.42 C 197.72 322.197 197.972 322.011 198.19 321.866 C 198.41 321.721 198.642 321.649 198.882 321.649 C 199.108 321.649 199.297 321.69 199.448 321.77 C 199.604 321.855 199.72 321.941 199.801 322.04 C 199.801 322.04 202.247 325.069 202.247 325.069 C 200.729 326.808 198.928 328.138 196.85 329.054 C 194.77 329.973 192.399 330.43 189.735 330.43 C 187.556 330.43 185.614 330.045 183.912 329.277 C 182.211 328.506 180.779 327.446 179.617 326.092 C 178.455 324.739 177.571 323.133 176.965 321.283 C 176.359 319.431 176.058 317.417 176.058 315.238 C 176.058 313.235 176.281 311.342 176.725 309.554 C 177.168 307.766 177.794 306.117 178.6 304.604 C 179.409 303.088 180.379 301.723 181.515 300.506 C 182.655 299.286 183.921 298.256 185.315 297.416 C 186.712 296.575 188.211 295.926 189.808 295.471 C 191.404 295.01 193.074 294.782 194.816 294.782 C 196.109 294.782 197.285 294.9 198.349 295.138 C 199.413 295.375 200.381 295.703 201.25 296.12 C 202.122 296.541 202.902 297.048 203.589 297.645 C 204.273 298.239 204.885 298.891 205.418 299.604 C 205.418 299.604 202.972 302.468 202.972 302.468 C 202.792 302.674 202.586 302.859 202.352 303.019 C 202.12 303.181 201.818 303.259 201.447 303.259 C 201.073 303.259 200.729 303.12 200.404 302.839 C 200.085 302.555 199.691 302.247 199.221 301.917 C 198.755 301.59 198.149 301.285 197.407 301.004 C 196.665 300.72 195.686 300.578 194.477 300.578 C 192.88 300.578 191.396 300.909 190.025 301.569 C 188.654 302.23 187.463 303.163 186.457 304.378 C 185.449 305.592 184.657 307.068 184.084 308.806 C 183.509 310.542 183.223 312.487 183.223 314.644 C 183.223 316.22 183.414 317.623 183.803 318.855 C 184.191 320.086 184.733 321.133 185.422 321.994 C 186.118 322.854 186.933 323.51 187.869 323.959 C 188.805 324.411 189.831 324.634 190.944 324.634 Z M 214.406 316.808 C 214.406 316.808 212.736 330.141 212.736 330.141 C 212.736 330.141 205.766 330.141 205.766 330.141 C 205.766 330.141 210.049 295.071 210.049 295.071 C 210.049 295.071 220.336 295.071 220.336 295.071 C 222.419 295.071 224.199 295.294 225.674 295.741 C 227.149 296.19 228.361 296.805 229.3 297.593 C 230.245 298.378 230.94 299.32 231.384 300.416 C 231.827 301.509 232.05 302.694 232.05 303.975 C 232.05 305.305 231.868 306.566 231.502 307.751 C 231.14 308.937 230.61 310.018 229.917 310.997 C 229.225 311.98 228.384 312.844 227.39 313.589 C 226.399 314.334 225.266 314.927 223.99 315.365 C 224.408 315.62 224.793 315.925 225.141 316.275 C 225.486 316.626 225.79 317.041 226.051 317.519 C 226.051 317.519 231.784 330.141 231.784 330.141 C 231.784 330.141 225.465 330.141 225.465 330.141 C 224.257 330.141 223.469 329.694 223.097 328.805 C 223.097 328.805 218.568 318.003 218.568 318.003 C 218.376 317.591 218.133 317.29 217.843 317.098 C 217.553 316.907 217.118 316.808 216.536 316.808 C 216.536 316.808 214.406 316.808 214.406 316.808 Z M 216.417 300.288 C 216.417 300.288 215.014 311.818 215.014 311.818 C 215.014 311.818 218.278 311.818 218.278 311.818 C 219.489 311.818 220.521 311.638 221.376 311.279 C 222.231 310.919 222.932 310.429 223.483 309.806 C 224.031 309.186 224.433 308.458 224.691 307.624 C 224.949 306.789 225.08 305.905 225.08 304.975 C 225.08 303.52 224.639 302.375 223.758 301.543 C 222.88 300.708 221.521 300.288 219.683 300.288 C 219.683 300.288 216.417 300.288 216.417 300.288 Z M 244.577 311.455 C 244.577 311.455 236.809 295.071 236.809 295.071 C 236.809 295.071 243.171 295.071 243.171 295.071 C 243.641 295.071 243.974 295.132 244.177 295.251 C 244.38 295.373 244.545 295.596 244.673 295.918 C 244.673 295.918 249.707 307.557 249.707 307.557 C 249.788 307.383 249.878 307.218 249.974 307.064 C 250.072 306.908 250.173 306.743 250.286 306.566 C 250.286 306.566 257.185 296.013 257.185 296.013 C 257.41 295.692 257.64 295.454 257.871 295.303 C 258.109 295.149 258.393 295.071 258.732 295.071 C 258.732 295.071 266.065 295.071 266.065 295.071 C 266.065 295.071 254.257 311.142 254.257 311.142 C 254.257 311.142 262.894 330.141 262.894 330.141 C 262.894 330.141 256.605 330.141 256.605 330.141 C 256.135 330.141 255.773 330.022 255.512 329.778 C 255.257 329.538 255.063 329.271 254.933 328.976 C 254.933 328.976 249.272 315.449 249.272 315.449 C 249.191 315.579 249.116 315.701 249.052 315.817 C 248.988 315.927 248.915 316.032 248.835 316.131 C 248.835 316.131 240.343 328.976 240.343 328.976 C 240.067 329.396 239.745 329.694 239.383 329.874 C 239.021 330.054 238.627 330.141 238.209 330.141 C 238.209 330.141 231.196 330.141 231.196 330.141 C 231.196 330.141 244.577 311.455 244.577 311.455 Z M 280.887 317.727 C 280.644 319.672 280.206 321.428 279.568 322.994 C 278.931 324.562 278.096 325.898 277.064 326.999 C 276.032 328.098 274.8 328.944 273.374 329.538 C 271.946 330.135 270.32 330.43 268.496 330.43 C 267.641 330.43 266.813 330.378 266.016 330.271 C 265.219 330.167 264.401 329.999 263.561 329.77 C 263.561 329.77 264.068 325.625 264.068 325.625 C 264.117 325.263 264.245 324.956 264.453 324.701 C 264.662 324.445 265.001 324.318 265.471 324.318 C 265.842 324.318 266.271 324.37 266.752 324.475 C 267.239 324.582 267.819 324.634 268.496 324.634 C 269.189 324.634 269.836 324.506 270.43 324.248 C 271.027 323.994 271.554 323.594 272.015 323.049 C 272.476 322.507 272.864 321.802 273.18 320.939 C 273.493 320.075 273.722 319.029 273.873 317.797 C 273.873 317.797 276.652 295.071 276.652 295.071 C 276.652 295.071 283.672 295.071 283.672 295.071 C 283.672 295.071 280.887 317.727 280.887 317.727 Z M 307.325 301.703 C 307.064 302.039 306.815 302.294 306.572 302.462 C 306.331 302.627 306.032 302.711 305.676 302.711 C 305.337 302.711 304.989 302.587 304.635 302.335 C 304.282 302.085 303.87 301.807 303.404 301.503 C 302.934 301.192 302.395 300.914 301.781 300.665 C 301.169 300.413 300.424 300.288 299.555 300.288 C 298.732 300.288 298.01 300.404 297.39 300.636 C 296.767 300.871 296.245 301.195 295.828 301.616 C 295.407 302.033 295.092 302.523 294.88 303.088 C 294.671 303.648 294.567 304.25 294.567 304.893 C 294.567 305.586 294.752 306.166 295.123 306.633 C 295.497 307.099 295.984 307.508 296.587 307.858 C 297.195 308.212 297.888 308.534 298.671 308.815 C 299.45 309.096 300.248 309.398 301.053 309.716 C 301.862 310.038 302.656 310.406 303.438 310.826 C 304.221 311.244 304.914 311.763 305.516 312.38 C 306.125 313 306.615 313.742 306.986 314.612 C 307.357 315.478 307.542 316.53 307.542 317.768 C 307.542 319.49 307.238 321.118 306.632 322.654 C 306.027 324.187 305.166 325.529 304.041 326.68 C 302.92 327.831 301.563 328.744 299.966 329.422 C 298.369 330.094 296.57 330.43 294.567 330.43 C 293.552 330.43 292.541 330.321 291.532 330.106 C 290.524 329.886 289.567 329.584 288.663 329.193 C 287.759 328.805 286.921 328.338 286.144 327.796 C 285.37 327.248 284.71 326.64 284.165 325.97 C 284.165 325.97 286.657 322.631 286.657 322.631 C 286.849 322.405 287.095 322.208 287.394 322.04 C 287.692 321.866 287.994 321.782 288.301 321.782 C 288.718 321.782 289.135 321.947 289.544 322.281 C 289.958 322.608 290.425 322.967 290.95 323.353 C 291.474 323.738 292.097 324.098 292.816 324.431 C 293.532 324.759 294.416 324.924 295.465 324.924 C 297.126 324.924 298.422 324.463 299.349 323.538 C 300.276 322.611 300.74 321.295 300.74 319.588 C 300.74 318.817 300.555 318.185 300.183 317.695 C 299.813 317.206 299.326 316.791 298.729 316.455 C 298.135 316.119 297.453 315.82 296.685 315.562 C 295.92 315.304 295.135 315.026 294.326 314.73 C 293.521 314.432 292.735 314.087 291.967 313.693 C 291.202 313.299 290.518 312.786 289.921 312.157 C 289.327 311.531 288.843 310.763 288.472 309.853 C 288.101 308.945 287.915 307.824 287.915 306.488 C 287.915 304.957 288.199 303.488 288.77 302.082 C 289.344 300.676 290.164 299.427 291.231 298.34 C 292.294 297.254 293.587 296.39 295.103 295.746 C 296.616 295.103 298.32 294.782 300.21 294.782 C 301.175 294.782 302.114 294.886 303.027 295.089 C 303.937 295.294 304.789 295.576 305.581 295.932 C 306.371 296.289 307.093 296.712 307.745 297.204 C 308.4 297.694 308.963 298.225 309.429 298.793 C 309.429 298.793 307.325 301.703 307.325 301.703 Z"
      style="fill: rgb(242, 186, 228); stroke-opacity: 0;" />
    <path id="Selection" stroke="black" stroke-width="1"
      d="M 156.518 134.795 C 156.518 134.795 328.677 134.795 328.677 134.795 C 328.677 134.795 328.677 381.151 328.677 381.151 C 328.677 381.151 156.518 381.151 156.518 381.151 C 156.518 381.151 156.518 134.795 156.518 134.795 Z M 324.619 138.563 C 324.619 138.563 160.575 138.563 160.575 138.563 C 160.575 138.563 160.575 377.383 160.575 377.383 C 160.575 377.383 324.619 377.383 324.619 377.383 C 324.619 377.383 324.619 138.563 324.619 138.563 Z"
      style="fill: rgb(242, 186, 228); stroke-opacity: 0;" />
    <path id="Imported Path" stroke="black" stroke-width="1"
      d="M 253.568 226.976 C 253.568 222.278 255.799 218.541 259.46 216.93 C 263.123 215.316 267.253 216.182 270.444 219.092 C 271.467 220.023 272.36 220.472 273.296 220.037 C 274.255 219.588 274.412 217.948 274.412 216.927 C 274.412 216.927 274.412 199.419 274.412 199.419 C 274.412 197.08 272.673 195.408 270.334 195.408 C 270.334 195.408 253.165 195.408 253.165 195.408 C 247.437 195.408 246.162 190.582 249.093 187.263 C 253.915 181.8 251.33 173.351 242.557 172.986 C 233.781 173.351 231.198 181.786 236.021 187.249 C 238.948 190.57 237.673 195.408 231.949 195.408 C 231.949 195.408 215.035 195.408 215.035 195.408 C 212.693 195.408 210.78 197.08 210.78 199.419 C 210.78 199.419 210.78 254.718 210.78 254.718 C 210.78 257.057 212.693 259.037 215.035 259.037 C 215.035 259.037 270.331 259.037 270.331 259.037 C 272.673 259.037 274.412 257.057 274.412 254.718 C 274.412 254.718 274.412 237.323 274.412 237.323 C 274.412 236.302 274.177 234.587 273.2 234.132 C 272.229 233.679 271.085 234.152 270.05 235.094 C 266.871 237.992 262.981 238.798 259.355 237.204 C 255.712 235.598 253.568 231.825 253.568 227.112 C 253.568 227.112 253.568 226.976 253.568 226.976 Z"
      style="fill: rgb(242, 186, 228); stroke-opacity: 0;" />
  </g>
</svg>