<?xml version="1.0" encoding="UTF-8"?>
<svg width="1200pt" height="1200pt" version="1.1" viewBox="0 0 1200 1200" xmlns="http://www.w3.org/2000/svg">
 <path d="m720 597.3c0-51.395 24.395-92.258 64.453-109.89 40.078-17.629 85.246-8.1484 120.14 23.664 11.195 10.188 20.977 15.086 31.199 10.32 10.488-4.8984 12.203-22.852 12.203-34.012v-191.5c0-25.594-19.008-43.883-44.617-43.883h-187.79c-62.629 0-76.586-52.766-44.543-89.062 52.754-59.762 24.492-152.17-71.496-156.18-95.977 3.9961-124.23 96.254-71.484 156.02 32.039 36.312 18.094 89.219-44.535 89.219h-185.02c-25.594 0-46.523 18.289-46.523 43.883v604.86c0 25.598 20.93 47.258 46.523 47.258h604.86c25.609 0 44.617-21.66 44.617-47.258v-190.25c0-11.16-2.5547-29.941-13.246-34.922-10.621-4.9453-23.148 0.21484-34.465 10.535-34.754 31.703-77.316 40.523-116.96 23.074-39.852-17.551-63.324-58.82-63.324-110.37z"/>
</svg>
