<?xml version="1.0" encoding="utf-8"?>
<svg data-name="Layer 1" width="956.03626" height="759.5636" viewBox="0 0 956.03626 759.5636" xmlns="http://www.w3.org/2000/svg">
  <path d="M1073.439,521.51392c15.66565,116.58886-5.66625,233.30468-114.1687,278.75348s-233.30468-5.6662-278.75354-114.16871,61.78473-173.424,114.1687-278.75348C901.06175,193.45244,1024.78947,159.44968,1073.439,521.51392Z" transform="translate(-121.98187 -70.2182)" fill="#f2f2f2"/>
  <ellipse cx="756.12241" cy="736.4364" rx="170" ry="23.1272" fill="#3f3d56"/>
  <rect x="769.31295" y="741.63239" width="43" height="24" transform="translate(-294.1906 167.72421) rotate(-15.45227)" fill="#2f2e41"/>
  <ellipse cx="764.42067" cy="755.74046" rx="7.5" ry="20" transform="translate(-295.70627 160.76857) rotate(-15.45227)" fill="#2f2e41"/>
  <ellipse cx="885.42236" cy="666.56883" rx="39.5" ry="12.40027" transform="translate(-16.01214 1384.22139) rotate(-82.28111)" fill="#2f2e41"/>
  <circle cx="755.70724" cy="670.29932" r="79" fill="#2f2e41"/>
  <rect x="769.31293" y="727.63239" width="43" height="24" transform="translate(-290.4605 167.21814) rotate(-15.45227)" fill="#2f2e41"/>
  <ellipse cx="764.42068" cy="741.74047" rx="7.5" ry="20" transform="translate(-291.97617 160.26251) rotate(-15.45227)" fill="#2f2e41"/>
  <circle cx="776.45145" cy="625.04291" r="27" fill="#fff"/>
  <circle cx="785.08578" cy="613.11584" r="9" fill="#3f3d56"/>
  <path d="M968.91886,794.80573c29.2345-1.46314,51.62464-28.80781,50.00965-61.07605S992.30509,676.48889,963.0706,677.952s-33.822,24.41241-32.2071,56.68072S939.68437,796.2688,968.91886,794.80573Z" transform="translate(-121.98187 -70.2182)" fill="#298cd6"/>
  <path d="M845.402,707.092a18,18,0,0,1-2.90424-35.88269c9.90875-.802,12.611,7.06451,13.413,16.97327S855.31077,706.2901,845.402,707.092Z" transform="translate(-121.98187 -70.2182)" fill="#fff"/>
  <rect x="675.59677" y="506.70966" width="126.12903" height="64.16132" fill="#298cd6"/>
  <ellipse cx="855.77064" cy="685.34018" rx="39.5" ry="12.40027" transform="translate(-60.28252 1371.08847) rotate(-82.28111)" fill="#2f2e41"/>
  <circle cx="567.84299" cy="621.25214" r="6.53537" style="fill: rgb(242, 186, 228);"/>
  <path d="M964.87282,426.482a.98189.98189,0,0,1-.30176-.04688C700.16432,342.81693,467.12672,353.7515,318.19118,377.649c-20.26856,3.251-40.59131,7.00586-60.40381,11.16113-5.05811,1.05957-10.30567,2.19532-15.59668,3.37793-6.31885,1.40723-12.55371,2.85645-18.53223,4.30567q-3.873.917-7.59472,1.84863c-3.75831.92774-7.57178,1.89453-11.65967,2.957-4.56787,1.17774-9.209,2.41309-13.79737,3.67188a.44239.44239,0,0,1-.05127.01465l.00049.001c-5.18261,1.415-10.33789,2.8711-15.32324,4.3252-2.69824.77929-5.30371,1.54785-7.79932,2.30664-.2788.07715-.52587.15137-.77636.22754l-.53614.16308c-.31054.09473-.61718.1875-.92382.27539l-.01953.00586.00048.001-.81152.252c-.96777.293-1.91211.5791-2.84082.86426-24.54492,7.56641-38.03809,12.94922-38.17139,13.00195a1,1,0,1,1-.74414-1.85644c.13428-.05274,13.69336-5.46289,38.32764-13.05762.93213-.28613,1.87891-.57226,2.84961-.86621l.7539-.23437c.02588-.00977.05176-.01758.07813-.0254.30518-.08691.60986-.17968.91943-.27343l.53711-.16309c.26758-.08105.53125-.16113.80127-.23535,2.47852-.75391,5.09278-1.52441,7.79785-2.30664,4.98731-1.45508,10.14746-2.91113,15.334-4.32813.01611-.00586.03271-.00976.04883-.01464v-.001c4.60449-1.2627,9.26269-2.50293,13.84521-3.68457,4.09424-1.06348,7.915-2.03223,11.67969-2.96192q3.73755-.93017,7.60937-1.85253c5.98536-1.45118,12.23291-2.90235,18.563-4.3125,5.29932-1.1836,10.55567-2.32227,15.62207-3.38282,19.84326-4.16211,40.19776-7.92285,60.49707-11.17871,149.14893-23.93164,382.52051-34.88379,647.29932,48.85449a.99974.99974,0,0,1-.30078,1.95313Z" transform="translate(-121.98187 -70.2182)" fill="#2f2e41"/>
  <ellipse cx="350.92849" cy="406.99822" rx="39.50001" ry="12.40027" transform="translate(-276.51929 519.26994) rotate(-69.08217)" fill="#2f2e41"/>
  <circle cx="246.93382" cy="300.02536" r="13.68536" fill="#298cd6"/>
  <path d="M558.6798,297.41473a15.75562,15.75562,0,1,1,15.75537-15.75586A15.77337,15.77337,0,0,1,558.6798,297.41473Zm0-29.51123a13.75562,13.75562,0,1,0,13.75537,13.75537A13.77066,13.77066,0,0,0,558.6798,267.9035Z" transform="translate(-121.98187 -70.2182)" fill="#3f3d56"/>
  <path d="M668.6798,477.41473a15.75562,15.75562,0,1,1,15.75537-15.75586A15.77368,15.77368,0,0,1,668.6798,477.41473Zm0-29.51123a13.75562,13.75562,0,1,0,13.75537,13.75537A13.77066,13.77066,0,0,0,668.6798,447.9035Z" transform="translate(-121.98187 -70.2182)" fill="#3f3d56"/>
  <path d="M433.6798,565.41473a15.75537,15.75537,0,1,1,15.75537-15.75586A15.77368,15.77368,0,0,1,433.6798,565.41473Zm0-29.51074a13.75537,13.75537,0,1,0,13.75537,13.75488A13.77087,13.77087,0,0,0,433.6798,535.904Z" transform="translate(-121.98187 -70.2182)" fill="#3f3d56"/>
  <ellipse cx="192.12241" cy="736.4364" rx="170" ry="23.1272" fill="#3f3d56"/>
  <circle cx="182.92696" cy="623.4364" r="79" fill="#2f2e41"/>
  <rect x="146.92696" y="685.4364" width="24" height="43" fill="#2f2e41"/>
  <rect x="194.92696" y="685.4364" width="24" height="43" fill="#2f2e41"/>
  <ellipse cx="166.92696" cy="728.9364" rx="20" ry="7.5" fill="#2f2e41"/>
  <ellipse cx="214.92696" cy="727.9364" rx="20" ry="7.5" fill="#2f2e41"/>
  <circle cx="184.92696" cy="603.4364" r="27" fill="#fff"/>
  <circle cx="184.92696" cy="603.4364" r="9" fill="#3f3d56"/>
  <path d="M228.27619,620.18689c-6.37889-28.56757,14.01186-57.4339,45.544-64.47473s62.26511,10.41,68.644,38.9776-14.51862,39.10382-46.05075,46.14465S234.65505,648.75446,228.27619,620.18689Z" transform="translate(-121.98187 -70.2182)" fill="#298cd6"/>
  <circle cx="155.92696" cy="396.4364" r="79" fill="#2f2e41"/>
  <rect x="119.92696" y="458.4364" width="24" height="43" fill="#2f2e41"/>
  <rect x="167.92696" y="458.4364" width="24" height="43" fill="#2f2e41"/>
  <ellipse cx="139.92696" cy="501.9364" rx="20" ry="7.5" fill="#2f2e41"/>
  <ellipse cx="187.92696" cy="500.9364" rx="20" ry="7.5" fill="#2f2e41"/>
  <circle cx="157.92696" cy="376.4364" r="27" fill="#fff"/>
  <circle cx="157.92696" cy="376.4364" r="9" fill="#3f3d56"/>
  <path d="M201.27619,393.18686c-6.37889-28.56757,14.01185-57.4339,45.544-64.47476s62.26511,10.41,68.644,38.9776-14.51862,39.10379-46.05075,46.14465S207.65505,421.75446,201.27619,393.18686Z" transform="translate(-121.98187 -70.2182)" fill="#298cd6"/>
  <ellipse cx="188.92849" cy="429.99823" rx="12.40027" ry="39.5" transform="translate(-402.53017 346.21537) rotate(-64.62574)" fill="#2f2e41"/>
  <path d="M239.10427,495.1546c0,7.732,19.90862,23,42,23s42.80455-21.768,42.80455-29.5-20.71316,1.5-42.80455,1.5S239.10427,487.42261,239.10427,495.1546Z" transform="translate(-121.98187 -70.2182)" fill="#fff"/>
  <circle cx="776.17447" cy="189.47009" r="79" fill="#2f2e41"/>
  <rect x="924.64407" y="316.07298" width="24.00007" height="43.00013" transform="translate(-167.13389 102.02451) rotate(-10.26083)" fill="#2f2e41"/>
  <rect x="877.41436" y="324.62803" width="24" height="43" transform="matrix(0.98401, -0.17813, 0.17813, 0.98401, -169.41388, 93.75219)" fill="#2f2e41"/>
  <ellipse cx="889.12582" cy="372.60284" rx="20" ry="7.5" transform="translate(-152.15736 592.66503) rotate(-40.26106)" fill="#2f2e41"/>
  <ellipse cx="935.37413" cy="364.23061" rx="20" ry="7.5" transform="translate(-135.79076 620.57067) rotate(-40.26106)" fill="#2f2e41"/>
  <circle cx="770.64383" cy="170.14622" r="27" fill="#fff"/>
  <circle cx="759.5469" cy="160.46817" r="9" fill="#3f3d56"/>
  <path d="M960.47636,173.74474c1.188-29.247-24.01868-54.01935-56.30066-55.33066s-59.41486,21.335-60.60291,50.582,21.25208,35.89213,53.53412,37.20344S959.28831,202.99171,960.47636,173.74474Z" transform="translate(-121.98187 -70.2182)" fill="#298cd6"/>
  <ellipse cx="825.21082" cy="245.29584" rx="12.40027" ry="39.5" transform="translate(279.7635 924.62413) rotate(-77.0899)" fill="#2f2e41"/>
  <ellipse cx="980.28482" cy="271.08444" rx="12.40027" ry="39.49999" transform="translate(375.05385 1095.80501) rotate(-77.0899)" fill="#2f2e41"/>
  <path d="M919.85374,290.82118a18,18,0,1,1-35.42426,6.4128c-1.77087-9.78214,5.79236-13.24364,15.57453-15.01448S918.08293,281.039,919.85374,290.82118Z" transform="translate(-121.98187 -70.2182)" fill="#fff"/>
  <rect x="749.20765" y="146.81417" width="1.99996" height="114.80854" transform="translate(8.94766 604.11862) rotate(-52.43141)" fill="#3f3d56"/>
  <circle cx="539.7258" cy="68" r="68" style="fill: rgb(242, 186, 228);"/>
  <circle cx="90.93381" cy="713.02533" r="13.68536" fill="#298cd6"/>
  <rect x="278.72583" y="697" width="36" height="36" style="fill: rgb(242, 186, 228);"/>
  <circle cx="278.93381" cy="721.02533" r="13.68536" fill="#298cd6"/>
</svg>